<svg id="Layer_1" data-name="Layer 1" xmlns="http://www.w3.org/2000/svg" viewBox="0 0 200 200"><defs><style>.cls-1{fill:#231f20;}</style></defs><title>Wondicon - UI (Free)</title><path class="cls-1" d="M170.69,175.35H29.31a5,5,0,0,1,0-10H170.69a5,5,0,0,1,0,10Z"/><path class="cls-1" d="M100,92.15a33.92,33.92,0,1,1,33.92-33.92A34,34,0,0,1,100,92.15Zm0-57.84a23.92,23.92,0,1,0,23.92,23.92A23.95,23.95,0,0,0,100,34.31Z"/><path class="cls-1" d="M150,175.35a5,5,0,0,1-5-5V129.82c0-13-20.61-23.92-45-23.92s-45,10.95-45,23.92v40.53a5,5,0,0,1-10,0V129.82c0-19,24.16-33.92,55-33.92s55,14.9,55,33.92v40.53A5,5,0,0,1,150,175.35Z"/></svg>